<svg xmlns="http://www.w3.org/2000/svg" xmlns:xlink="http://www.w3.org/1999/xlink" width="128" height="128" version="1.1" viewBox="0 0 128 128"><title>Group 4 Copy 3</title><desc>Created with Sketch.</desc><defs><linearGradient id="linearGradient-1" x1="42.363%" x2="75.808%" y1="33.5%" y2="80.409%"><stop offset="0%" stop-color="#FFC7D3"/><stop offset="100%" stop-color="#F5546C"/></linearGradient><linearGradient id="linearGradient-2" x1="89.425%" x2="38.177%" y1="107.87%" y2="2.655%"><stop offset="0%" stop-color="#FB8DA5"/><stop offset="100%" stop-color="#E5475E"/></linearGradient></defs><g id="Page-1" fill="none" fill-rule="evenodd" stroke="none" stroke-width="1"><g id="Group-4-Copy-3"><circle id="Oval-Copy-3" cx="64" cy="64" r="64" fill="url(#linearGradient-1)"/><circle id="Oval-Copy-5" cx="64" cy="64" r="56" fill="url(#linearGradient-2)"/><g id="Group-Copy-3" fill="#FFF" transform="translate(36.000000, 32.000000)"><g id="Group-5" transform="translate(0.000000, 0.043065)"><g id="Group-6"><path id="Combined-Shape" d="M34.5116436,3.87096002 C41.9580783,-0.428241035 49.8099807,-0.769111454 52.0493584,3.10960463 L52.0493584,3.10960463 L38.4854042,10.9406767 C39.1228428,10.8992794 39.7722482,10.8779544 40.4312158,10.8779544 C49.0296179,10.8779544 56,14.5087031 56,18.9874587 L56,18.9874587 L38.8504097,18.9865411 C39.962288,19.4516223 41.0852364,20.0061483 42.1991121,20.6492448 C49.6455468,24.9484458 53.8667004,31.5779575 51.6273226,35.4566736 L51.6273226,35.4566736 L28,21.815 L4.37267739,35.4566736 C2.13329962,31.5779575 6.35445324,24.9484458 13.8008879,20.6492448 C14.9147636,20.0061483 16.037712,19.4516223 17.1495903,18.9865411 L0,18.9874587 C0,14.5087031 6.97038213,10.8779544 15.5687842,10.8779544 C16.2277518,10.8779544 16.8771572,10.8992794 17.5145958,10.9406767 L3.95064157,3.10960463 C6.19001934,-0.769111454 14.0419217,-0.428241035 21.4883564,3.87096002 C24.1039757,5.38108852 26.3216529,7.17873573 28.0011756,9.04369182 C29.6783471,7.17873573 31.8960243,5.38108852 34.5116436,3.87096002 Z"/><polygon id="Path-3" points="29.801 26.236 27.316 24 24.828 26.236 20 68.841 33.039 68.841"/></g></g></g></g></g></svg>